<svg width="43" height="43" viewBox="0 0 43 43" fill="none" xmlns="http://www.w3.org/2000/svg">
<g clip-path="url(#clip0)">
<path d="M17.6184 29.8814C17.6984 29.961 17.7938 30.0242 17.8991 30.0674C18.0044 30.1106 18.1174 30.1328 18.2316 30.1328C18.3458 30.1328 18.4588 30.1106 18.5641 30.0674C18.6694 30.0242 18.7648 29.961 18.8448 29.8814C19.004 29.7234 19.0933 29.5105 19.0933 29.2887C19.0933 29.0669 19.004 28.854 18.8448 28.696L12.6276 22.6222L33.1408 22.6222C33.2539 22.6228 33.366 22.6013 33.4705 22.5592C33.5751 22.5172 33.6701 22.4552 33.75 22.377C33.8299 22.2988 33.8931 22.2059 33.9361 22.1037C33.979 22.0014 34.0007 21.8919 34 21.7814C34 21.3134 33.6198 20.9302 33.1421 20.9302H12.629L18.8448 14.8668C19.0038 14.7064 19.0928 14.4917 19.0928 14.2683C19.0928 14.0449 19.0038 13.8303 18.8448 13.6698C18.5026 13.3342 17.95 13.3342 17.6184 13.6698L9.93028 21.1822C9.84903 21.2592 9.78442 21.3513 9.7403 21.4531C9.69619 21.5549 9.67345 21.6644 9.67345 21.775C9.67345 21.8855 9.69619 21.995 9.7403 22.0968C9.78442 22.1986 9.84903 22.2907 9.93028 22.3677L17.6184 29.8814Z" fill="#235EA0"/>
</g>
<circle cx="21.5" cy="21.5" r="21" stroke="#235EA0"/>
<defs>
<clipPath id="clip0">
<rect width="25" height="18" fill="white" transform="translate(34 31) rotate(-180)"/>
</clipPath>
</defs>
</svg>
