<svg width="32" height="32" viewBox="0 0 32 32" fill="none" xmlns="http://www.w3.org/2000/svg">
<circle cx="16" cy="16" r="16" transform="rotate(-180 16 16)" fill="#3D90C2"/>
<g clip-path="url(#clip0)">
<path d="M18.8886 9.76267C18.8291 9.70343 18.7581 9.65636 18.6797 9.62424C18.6014 9.59211 18.5173 9.57556 18.4323 9.57556C18.3473 9.57556 18.2632 9.59211 18.1849 9.62424C18.1065 9.65636 18.0355 9.70343 17.976 9.76267C17.8575 9.88028 17.7911 10.0387 17.7911 10.2038C17.7911 10.3688 17.8575 10.5273 17.976 10.6449L22.6027 15.1648L7.33709 15.1648C7.25293 15.1644 7.16952 15.1804 7.09171 15.2117C7.01389 15.243 6.9432 15.2891 6.88374 15.3473C6.82427 15.4055 6.77721 15.4747 6.74527 15.5507C6.71333 15.6268 6.69716 15.7083 6.69767 15.7906C6.69767 16.1389 6.98066 16.424 7.33611 16.424H22.6017L17.976 20.9363C17.8576 21.0557 17.7914 21.2154 17.7914 21.3817C17.7914 21.548 17.8576 21.7077 17.976 21.8271C18.2306 22.0768 18.6419 22.0768 18.8886 21.8271L24.61 16.2365C24.6705 16.1792 24.7186 16.1106 24.7514 16.0349C24.7842 15.9591 24.8012 15.8776 24.8012 15.7954C24.8012 15.7131 24.7842 15.6316 24.7514 15.5559C24.7186 15.4801 24.6705 15.4115 24.61 15.3543L18.8886 9.76267Z" fill="white"/>
</g>
<defs>
<clipPath id="clip0">
<rect width="18.6047" height="13.3953" fill="white" transform="translate(6.69766 8.93024)"/>
</clipPath>
</defs>
</svg>
