<svg width="15" height="15" viewBox="0 0 15 15" fill="none" xmlns="http://www.w3.org/2000/svg">
<g clip-path="url(#clip0)">
<path d="M15.0292 5.03905V7.3828C15.0292 7.70644 14.7669 7.96874 14.4433 7.96874H14.0579L13.8111 10.1657C13.7774 10.465 13.5238 10.6861 13.2295 10.6863C13.2076 10.6863 13.1857 10.685 13.1634 10.6825C12.8418 10.6464 12.6104 10.3563 12.6465 10.0349L12.9519 7.31745C12.9852 7.02105 13.2358 6.79686 13.5341 6.79686H13.8574V5.62499H1.20117V6.79686H11.1914C11.5151 6.79686 11.7774 7.05928 11.7774 7.3828C11.7774 7.70644 11.5151 7.96874 11.1914 7.96874H2.19063L2.76925 12.7957C2.83974 13.3843 3.33996 13.8281 3.93277 13.8281H11.1728C11.7699 13.8281 12.2706 13.3805 12.3373 12.787C12.3734 12.4655 12.6634 12.2342 12.9849 12.2702C13.3065 12.3064 13.5379 12.5964 13.5019 12.918C13.3684 14.1048 12.3672 15 11.1728 15H3.93277C2.74716 15 1.74671 14.1123 1.60561 12.9351L1.0104 7.96874H0.615235C0.291596 7.96874 0.0292969 7.70644 0.0292969 7.3828V5.03905C0.0292969 4.71541 0.291596 4.45311 0.615235 4.45311H2.69349L5.78969 0.239052C5.98126 -0.0216445 6.34793 -0.077835 6.60874 0.113854C6.86956 0.305428 6.92563 0.672097 6.73406 0.932908L4.14769 4.45311H10.9326L8.34608 0.932908C8.1545 0.672097 8.21058 0.305428 8.47139 0.113854C8.7322 -0.077835 9.09887 -0.0217589 9.29056 0.239052L12.3866 4.45311H14.4433C14.7669 4.45311 15.0292 4.71552 15.0292 5.03905ZM6.94337 9.72655V12.0703C6.94337 12.3939 7.20567 12.6562 7.52931 12.6562C7.85283 12.6562 8.11525 12.3939 8.11525 12.0703V9.72655C8.11525 9.40291 7.85283 9.14061 7.52931 9.14061C7.20567 9.14061 6.94337 9.40291 6.94337 9.72655ZM9.28712 9.72655V12.0703C9.28712 12.3939 9.54942 12.6562 9.87306 12.6562C10.1966 12.6562 10.459 12.3939 10.459 12.0703V9.72655C10.459 9.40291 10.1966 9.14061 9.87306 9.14061C9.54942 9.14061 9.28712 9.40291 9.28712 9.72655ZM4.59962 9.72655V12.0703C4.59962 12.3939 4.86192 12.6562 5.18555 12.6562C5.50908 12.6562 5.77149 12.3939 5.77149 12.0703V9.72655C5.77149 9.40291 5.50908 9.14061 5.18555 9.14061C4.86192 9.14061 4.59962 9.40291 4.59962 9.72655Z" fill="black"/>
</g>
<defs>
<clipPath id="clip0">
<rect width="15" height="15" fill="white"/>
</clipPath>
</defs>
</svg>
