<svg width="385" height="385" viewBox="0 0 385 385" fill="none" xmlns="http://www.w3.org/2000/svg">
<circle cx="192.5" cy="192.5" r="192.5" fill="#F1CF4A"/>
<g clip-path="url(#clip0)">
<path d="M133.55 225.282C153.178 248.745 176.806 267.218 203.773 280.289C214.041 285.155 227.772 290.928 243.07 291.918C244.019 291.959 244.926 292 245.874 292C256.142 292 264.389 288.454 271.11 281.155C271.151 281.114 271.234 281.031 271.275 280.949C273.667 278.063 276.388 275.465 279.233 272.702C281.171 270.846 283.151 268.908 285.047 266.929C293.83 257.775 293.83 246.147 284.965 237.281L260.183 212.499C255.977 208.128 250.946 205.819 245.668 205.819C240.39 205.819 235.318 208.128 230.988 212.458L216.226 227.22C214.866 226.436 213.464 225.735 212.144 225.076C210.495 224.251 208.969 223.467 207.608 222.602C194.166 214.066 181.96 202.932 170.291 188.624C164.394 181.16 160.435 174.893 157.673 168.501C161.549 164.996 165.177 161.326 168.682 157.739C169.919 156.461 171.198 155.182 172.476 153.904C176.929 149.451 179.321 144.296 179.321 139.059C179.321 133.823 176.971 128.668 172.476 124.215L160.188 111.927C158.745 110.484 157.384 109.082 155.982 107.638C153.26 104.834 150.415 101.948 147.611 99.3502C143.364 95.1855 138.375 93 133.097 93C127.86 93 122.829 95.1855 118.417 99.3914L102.995 114.813C97.3871 120.421 94.212 127.225 93.5522 135.101C92.7687 144.956 94.5831 155.43 99.2839 168.089C106.5 187.676 117.386 205.86 133.55 225.282ZM103.614 135.967C104.108 130.483 106.211 125.906 110.17 121.947L125.509 106.608C127.901 104.298 130.54 103.103 133.097 103.103C135.612 103.103 138.168 104.298 140.519 106.69C143.282 109.247 145.879 111.927 148.683 114.772C150.085 116.215 151.529 117.659 152.972 119.143L165.26 131.431C167.816 133.988 169.136 136.585 169.136 139.142C169.136 141.699 167.816 144.296 165.26 146.853C163.982 148.131 162.703 149.451 161.425 150.729C157.59 154.605 154.003 158.275 150.044 161.78C149.962 161.862 149.92 161.904 149.838 161.986C146.415 165.409 146.952 168.666 147.776 171.14C147.817 171.264 147.859 171.346 147.9 171.47C151.075 179.099 155.487 186.356 162.373 195.015C174.744 210.272 187.774 222.107 202.124 231.22C203.897 232.374 205.794 233.281 207.567 234.189C209.216 235.013 210.742 235.797 212.103 236.663C212.268 236.745 212.391 236.828 212.556 236.91C213.917 237.611 215.237 237.941 216.556 237.941C219.855 237.941 221.999 235.838 222.7 235.137L238.122 219.715C240.514 217.323 243.111 216.045 245.668 216.045C248.802 216.045 251.358 217.983 252.967 219.715L277.831 244.539C282.78 249.487 282.738 254.847 277.708 260.084C275.976 261.94 274.161 263.713 272.223 265.568C269.337 268.372 266.327 271.259 263.605 274.516C258.863 279.63 253.214 282.021 245.915 282.021C245.214 282.021 244.472 281.98 243.771 281.939C230.246 281.073 217.669 275.795 208.227 271.3C182.579 258.888 160.064 241.281 141.385 218.932C126.004 200.417 115.654 183.181 108.809 164.708C104.562 153.368 102.954 144.255 103.614 135.967Z" fill="#235EA0"/>
</g>
<defs>
<clipPath id="clip0">
<rect width="199" height="199" fill="white" transform="translate(93 93)"/>
</clipPath>
</defs>
</svg>
