<svg width="385" height="385" viewBox="0 0 385 385" fill="none" xmlns="http://www.w3.org/2000/svg">
<circle cx="192.5" cy="192.5" r="192.5" fill="#F1CF4A"/>
<g clip-path="url(#clip0)">
<path d="M259.625 131.5H126.375C117.897 131.5 111 138.397 111 146.875V239.125C111 247.603 117.897 254.5 126.375 254.5H259.625C268.103 254.5 275 247.603 275 239.125V146.875C275 138.397 268.103 131.5 259.625 131.5V131.5ZM259.625 141.75C260.321 141.75 260.984 141.894 261.589 142.147L193 201.593L124.41 142.147C125.016 141.895 125.678 141.75 126.375 141.75H259.625ZM259.625 244.25H126.375C123.547 244.25 121.25 241.953 121.25 239.125V152.976L189.642 212.249C190.608 213.084 191.804 213.5 193 213.5C194.196 213.5 195.392 213.085 196.358 212.249L264.75 152.976V239.125C264.75 241.953 262.453 244.25 259.625 244.25V244.25Z" fill="#235EA0"/>
</g>
<defs>
<clipPath id="clip0">
<rect width="164" height="164" fill="white" transform="translate(111 111)"/>
</clipPath>
</defs>
</svg>
