<svg width="385" height="385" viewBox="0 0 385 385" fill="none" xmlns="http://www.w3.org/2000/svg">
<circle cx="192.5" cy="192.5" r="192.5" fill="#F1CF4A"/>
<path d="M193 95C148.673 95 112.609 131.064 112.609 175.391C112.609 211.13 136.16 242.464 170.2 252.499L187.863 287.825C188.837 289.771 190.824 291 193 291C195.174 291 197.163 289.771 198.135 287.825L215.798 252.5C249.84 242.465 273.391 211.131 273.391 175.391C273.391 131.064 237.327 95 193 95V95ZM210.363 242.091C208.757 242.507 207.411 243.597 206.669 245.08L193 272.419L179.331 245.08C178.589 243.597 177.243 242.507 175.637 242.09C145.289 234.215 124.094 206.787 124.094 175.391C124.094 137.395 155.004 106.484 193 106.484C230.996 106.484 261.906 137.395 261.906 175.391C261.906 206.787 240.711 234.215 210.363 242.091V242.091Z" fill="#235EA0"/>
<path d="M193 152.422C180.334 152.422 170.031 162.725 170.031 175.391C170.031 188.056 180.334 198.359 193 198.359C205.666 198.359 215.969 188.056 215.969 175.391C215.969 162.725 205.666 152.422 193 152.422ZM193 186.875C186.667 186.875 181.516 181.723 181.516 175.391C181.516 169.058 186.667 163.906 193 163.906C199.333 163.906 204.484 169.058 204.484 175.391C204.484 181.723 199.333 186.875 193 186.875Z" fill="#235EA0"/>
</svg>
