<svg width="385" height="385" viewBox="0 0 385 385" fill="none" xmlns="http://www.w3.org/2000/svg">
<circle cx="192.5" cy="192.5" r="192.5" fill="#F1CF4A"/>
<path d="M152.275 170.896H181.566C184.094 170.896 186.143 168.847 186.143 166.319C186.143 163.792 184.094 161.743 181.566 161.743H152.275C149.747 161.743 147.698 163.792 147.698 166.319C147.698 168.847 149.748 170.896 152.275 170.896Z" fill="#235EA0"/>
<path d="M209.027 191.492H152.275C149.747 191.492 147.698 193.541 147.698 196.068C147.698 198.596 149.747 200.645 152.275 200.645H209.027C211.554 200.645 213.603 198.596 213.603 196.068C213.603 193.541 211.554 191.492 209.027 191.492Z" fill="#235EA0"/>
<path d="M209.027 221.241H152.275C149.747 221.241 147.698 223.29 147.698 225.817C147.698 228.345 149.747 230.394 152.275 230.394H209.027C211.554 230.394 213.603 228.345 213.603 225.817C213.603 223.29 211.554 221.241 209.027 221.241Z" fill="#235EA0"/>
<path d="M274.475 255.566V111.398C274.857 102.18 267.695 94.3973 258.477 94.0145C258.089 93.9983 257.7 93.9957 257.312 94.0066H158.911C148.842 94.0066 139.46 101.329 139.46 111.398V119.179H131.451C120.981 119.409 112.479 127.711 112 138.172V282.569C112.298 285.359 114.034 287.789 116.577 288.976C119.209 290.139 122.282 289.597 124.357 287.603L138.316 275.017L155.021 289.891C156.268 291.047 157.899 291.699 159.598 291.722C161.289 291.659 162.907 291.012 164.175 289.891L180.651 275.017L197.127 289.891C199.733 292.222 203.675 292.222 206.281 289.891L222.986 275.017L236.716 287.603C238.379 289.649 241.26 290.226 243.581 288.976C245.855 287.671 247.187 285.185 247.014 282.569V250.074L249.76 248.014L263.719 260.6C265.01 261.832 266.742 262.492 268.524 262.431C269.315 262.503 270.11 262.344 270.812 261.973C273.218 260.776 274.664 258.246 274.475 255.566ZM237.86 277.535L227.105 267.008C224.682 264.531 220.728 264.429 218.18 266.779L201.475 281.654L185.227 266.779C182.552 264.637 178.749 264.637 176.074 266.779L159.598 281.654L142.892 266.779C140.006 264.414 135.826 264.511 133.053 267.008L121.153 277.535V138.173C121.611 132.764 126.027 128.544 131.451 128.333H229.851C234.886 128.333 237.86 133.138 237.86 138.173V277.535ZM265.321 111.398V250.532L253.879 240.005C252.049 238.174 251.591 237.717 247.014 238.403V138.173C247.014 128.104 239.92 119.179 229.851 119.179H148.614V111.398C148.614 106.364 153.877 103.16 158.911 103.16H257.312C261.474 102.889 265.067 106.044 265.338 110.206C265.364 110.603 265.358 111.002 265.321 111.398Z" fill="#235EA0"/>
</svg>
