<svg width="27" height="27" viewBox="0 0 27 27" fill="none" xmlns="http://www.w3.org/2000/svg">
<path d="M2.94427 18.2971C2.94427 23.407 7.83373 26.7254 8.0419 26.8642C8.65216 27.271 9.4429 26.6952 9.24106 25.9888C8.00098 21.6486 8.14145 17.1396 11.4878 14.0815C11.0799 15.5847 11.1883 16.8087 11.8115 17.724C13.0116 19.4866 15.6781 19.4438 17.7795 19.1282C19.406 20.563 18.2456 23.8892 17.2641 25.8524C16.902 26.5766 17.7416 27.3098 18.4102 26.8641C21.9544 24.5013 23.8487 21.5353 24.0408 18.0484C24.3918 11.6705 18.541 4.21793 13.7343 0.18586C13.221 -0.24476 12.435 0.120742 12.435 0.791796C12.435 5.23508 10.1211 7.40563 7.67128 9.70367C5.34735 11.8837 2.94427 14.1378 2.94427 18.2971ZM13.9084 2.48206C17.9166 6.3067 22.7664 12.4486 22.4611 17.9641C22.3436 20.0879 21.4573 22.0011 19.8197 23.6772C21.1025 19.0496 18.4586 17.6565 18.325 17.5896C18.1755 17.5149 18.0061 17.4895 17.8413 17.5169C15.3413 17.9336 13.7087 17.6978 13.1199 16.8351C12.3029 15.6382 13.4405 13.1538 13.9042 12.3768C14.293 11.7287 13.6335 10.9552 12.9323 11.2355C10.5202 12.2004 5.86328 16.0831 7.17755 24.0333C5.95075 22.7543 4.52608 20.7424 4.52608 18.2971C4.52608 14.8229 6.48514 12.9852 8.7535 10.8573C10.9337 8.81217 13.3711 6.52541 13.9084 2.48206Z" fill="#F1B84A"/>
</svg>
