<svg width="27" height="27" viewBox="0 0 27 27" fill="none" xmlns="http://www.w3.org/2000/svg">
<g clip-path="url(#clip0)">
<path d="M24.2401 8.66797C23.8487 8.66797 23.5311 8.98575 23.5311 9.37693V12.1498H22.7385V11.5178C22.7385 9.94652 21.4599 8.66797 19.889 8.66797C19.0355 8.66797 18.2712 9.04717 17.7481 9.64308C17.225 9.04717 16.4606 8.66797 15.6075 8.66797C14.7541 8.66797 13.9892 9.04717 13.4666 9.64308C12.9436 9.04717 12.179 8.66797 11.3257 8.66797C10.4726 8.66797 9.70781 9.04717 9.18499 9.64308C8.66217 9.04717 7.89734 8.66797 7.04408 8.66797C5.47296 8.66797 4.1944 9.94662 4.1944 11.5178V12.1498H2.76136C2.37018 12.1498 2.0524 12.4673 2.0524 12.8587C2.0524 13.25 2.37018 13.5678 2.76136 13.5678H4.19331V24.15C4.19331 25.7213 5.47197 26.9999 7.04299 26.9999C7.89625 26.9999 8.66109 26.6209 9.1839 26.0249C9.70672 26.6209 10.4714 26.9999 11.3246 26.9999C12.1779 26.9999 12.9425 26.6209 13.4653 26.0249C13.9881 26.6209 14.753 26.9999 15.6061 26.9999C16.4591 26.9999 17.2244 26.6209 17.747 26.0249C18.2695 26.6209 19.0348 26.9999 19.8879 26.9999C21.4592 26.9999 22.7378 25.7212 22.7378 24.15V13.5683H24.239C24.6303 13.5683 24.9479 13.2505 24.9479 12.8593V9.37742C24.9492 8.98575 24.6311 8.66797 24.2401 8.66797ZM21.3204 13.5683V24.1505C21.3204 24.9402 20.6783 25.5824 19.889 25.5824C19.0996 25.5824 18.4571 24.9403 18.4571 24.1505V13.5683V12.1502V11.5183C18.4571 10.7288 19.0996 10.0864 19.889 10.0864C20.6783 10.0864 21.3204 10.7287 21.3204 11.5183V12.1502V13.5683ZM17.0386 24.1501C17.0386 24.9398 16.3961 25.5819 15.6067 25.5819C14.8174 25.5819 14.1748 24.9399 14.1748 24.1501V13.5683V12.1502V11.5183C14.1748 10.7288 14.8173 10.0864 15.6067 10.0864C16.396 10.0864 17.0386 10.7287 17.0386 11.5183V12.1502V13.5683V24.1501ZM12.7571 24.1501C12.7571 24.9398 12.1148 25.5819 11.3254 25.5819C10.5361 25.5819 9.89375 24.9399 9.89375 24.1501V13.5683V12.1502V11.5183C9.89375 10.7288 10.5361 10.0864 11.3254 10.0864C12.1148 10.0864 12.7571 10.7287 12.7571 11.5183V12.1502V13.5683V24.1501ZM8.47524 24.1501C8.47524 24.9398 7.83265 25.5819 7.04338 25.5819C6.25402 25.5819 5.61172 24.9399 5.61172 24.1501V13.5683V12.1502V11.5183C5.61172 10.7288 6.25402 10.0864 7.04338 10.0864C7.83265 10.0864 8.47524 10.7287 8.47524 11.5183V12.1502V13.5683V24.1501Z" fill="#F1684A"/>
<path d="M8.75039 0.238044C8.11136 1.00041 7.84837 1.80768 8.16507 2.77686C8.47761 3.73298 9.43749 4.60988 8.67147 5.59498C8.1173 6.3072 9.11328 7.31881 9.67388 6.59759C10.3049 5.78626 10.5777 4.95872 10.2592 3.95186C9.97188 3.04341 8.98866 2.15207 9.75281 1.24065C10.3363 0.544751 9.33869 -0.463792 8.75039 0.238044Z" fill="#F1684A"/>
<path d="M13.9284 6.59661C14.5599 5.78529 14.8322 4.95774 14.5137 3.95088C14.2266 3.04243 13.2431 2.15109 14.0073 1.23968C14.5908 0.543774 13.5928 -0.464768 13.0049 0.237067C12.3659 0.999433 12.103 1.8067 12.4197 2.77588C12.7322 3.732 13.6921 4.6089 12.9261 5.594C12.3714 6.30632 13.3673 7.31783 13.9284 6.59661Z" fill="#F1684A"/>
<path d="M17.2584 0.238044C16.6195 1.00041 16.3564 1.80768 16.673 2.77686C16.986 3.73298 17.9457 4.60988 17.1799 5.59498C16.6256 6.3072 17.6213 7.31881 18.182 6.59759C18.8131 5.78626 19.0859 4.95872 18.7674 3.95186C18.4799 3.04341 17.4965 2.15207 18.261 1.24065C18.8444 0.544751 17.847 -0.463792 17.2584 0.238044Z" fill="#F1684A"/>
</g>
<defs>
<clipPath id="clip0">
<rect width="27" height="27" fill="white"/>
</clipPath>
</defs>
</svg>
