<svg width="512" height="512" viewBox="0 0 512 512" fill="none" xmlns="http://www.w3.org/2000/svg">
<path d="M433.531 177.531C433.531 217.574 405.445 283.571 350.054 373.672C309.551 439.559 268.468 495.151 268.058 495.711L256 512L243.943 495.711C243.533 495.151 202.45 439.559 161.947 373.672C106.556 283.571 78.47 217.574 78.47 177.531C78.469 79.645 158.105 0 256 0C353.895 0 433.531 79.645 433.531 177.531Z" fill="#235EA0"/>
<path d="M357.517 174.779C357.517 230.761 311.981 276.306 255.999 276.306C200.017 276.306 154.482 230.76 154.482 174.779C154.482 118.807 200.018 73.261 255.999 73.261C311.98 73.261 357.517 118.807 357.517 174.779Z" fill="white"/>
<path d="M433.531 177.531C433.531 217.574 405.445 283.571 350.054 373.672C309.551 439.559 268.468 495.151 268.058 495.711L256 512V0C353.895 0 433.531 79.645 433.531 177.531Z" fill="#F1CF4A"/>
<path d="M357.517 174.779C357.517 230.761 311.981 276.306 255.999 276.306V73.261C311.982 73.261 357.517 118.807 357.517 174.779Z" fill="white"/>
</svg>
