<svg width="43" height="43" viewBox="0 0 43 43" fill="none" xmlns="http://www.w3.org/2000/svg">
<g clip-path="url(#clip0)">
<path d="M25.3816 13.1186C25.3016 13.0389 25.2062 12.9757 25.1009 12.9325C24.9956 12.8894 24.8826 12.8671 24.7684 12.8671C24.6542 12.8671 24.5412 12.8894 24.4359 12.9325C24.3306 12.9757 24.2352 13.0389 24.1552 13.1186C23.996 13.2766 23.9067 13.4895 23.9067 13.7113C23.9067 13.9331 23.996 14.146 24.1552 14.304L30.3724 20.3777L9.8592 20.3777C9.74611 20.3772 9.63403 20.3986 9.52947 20.4407C9.4249 20.4828 9.32991 20.5447 9.25001 20.6229C9.1701 20.7011 9.10686 20.794 9.06394 20.8963C9.02103 20.9985 8.99929 21.1081 8.99999 21.2186C8.99999 21.6866 9.38025 22.0697 9.85788 22.0697H30.371L24.1552 28.1331C23.9962 28.2936 23.9072 28.5082 23.9072 28.7316C23.9072 28.955 23.9962 29.1697 24.1552 29.3301C24.4974 29.6657 25.05 29.6657 25.3816 29.3301L33.0697 21.8177C33.151 21.7407 33.2156 21.6486 33.2597 21.5468C33.3038 21.445 33.3265 21.3356 33.3265 21.225C33.3265 21.1144 33.3038 21.005 33.2597 20.9032C33.2156 20.8013 33.151 20.7092 33.0697 20.6323L25.3816 13.1186Z" fill="white"/>
</g>
<circle cx="21.5" cy="21.5" r="21" transform="rotate(-180 21.5 21.5)" stroke="white"/>
<defs>
<clipPath id="clip0">
<rect width="25" height="18" fill="white" transform="translate(9 12)"/>
</clipPath>
</defs>
</svg>
