<svg width="22" height="22" viewBox="0 0 22 22" fill="none" xmlns="http://www.w3.org/2000/svg">
<path d="M4.48291 14.6241C6.65283 17.218 9.26493 19.2603 12.2463 20.7053C13.3814 21.2433 14.8994 21.8815 16.5907 21.9909C16.6955 21.9954 16.7958 22 16.9007 22C18.0358 22 18.9475 21.608 19.6905 20.8011C19.6951 20.7965 19.7042 20.7874 19.7088 20.7783C19.9732 20.4592 20.274 20.172 20.5886 19.8666C20.8028 19.6614 21.0217 19.4472 21.2314 19.2283C22.2024 18.2163 22.2023 16.9308 21.2222 15.9507L18.4825 13.2109C18.0175 12.7277 17.4614 12.4724 16.8779 12.4724C16.2944 12.4724 15.7336 12.7277 15.255 13.2064L13.623 14.8384C13.4726 14.7518 13.3176 14.6743 13.1717 14.6013C12.9893 14.5102 12.8207 14.4235 12.6702 14.3278C11.1841 13.3842 9.83476 12.1533 8.54466 10.5715C7.89278 9.74637 7.45515 9.05346 7.14972 8.34687C7.57823 7.95939 7.97939 7.55367 8.36688 7.15707C8.50364 7.01575 8.64495 6.87443 8.78627 6.73311C9.2786 6.24078 9.54301 5.67095 9.54301 5.092C9.54301 4.51305 9.28316 3.94322 8.78627 3.45089L7.4278 2.09242C7.26824 1.93286 7.11781 1.77787 6.96282 1.61832C6.66194 1.30833 6.3474 0.989225 6.03741 0.702031C5.56787 0.241608 5.01628 0 4.43277 0C3.85382 0 3.29767 0.241608 2.80989 0.706589L1.10496 2.41152C0.484987 3.0315 0.133971 3.78367 0.0610329 4.65437C-0.0255813 5.74389 0.174999 6.90178 0.694684 8.30128C1.49245 10.4666 2.69593 12.477 4.48291 14.6241ZM1.17334 4.7501C1.22804 4.1438 1.46054 3.6378 1.89817 3.20017L3.59398 1.50435C3.85838 1.24907 4.15013 1.11687 4.43277 1.11687C4.71085 1.11687 4.99348 1.24907 5.25332 1.51347C5.55875 1.7961 5.84595 2.09242 6.15594 2.40696C6.31093 2.56651 6.47048 2.72607 6.63003 2.89018L7.98851 4.24865C8.27114 4.53129 8.41702 4.81848 8.41702 5.10112C8.41702 5.38375 8.27114 5.67095 7.98851 5.95359C7.84719 6.0949 7.70587 6.24078 7.56456 6.3821C7.1406 6.81061 6.744 7.21633 6.30637 7.60381C6.29725 7.61293 6.2927 7.61749 6.28358 7.62661C5.90521 8.00497 5.96447 8.36511 6.05565 8.63862C6.0602 8.6523 6.06476 8.66142 6.06932 8.67509C6.42034 9.51844 6.90811 10.3208 7.6694 11.2781C9.037 12.9648 10.4775 14.2731 12.0639 15.2806C12.26 15.4082 12.4697 15.5085 12.6657 15.6088C12.848 15.7 13.0167 15.7866 13.1671 15.8823C13.1854 15.8914 13.199 15.9005 13.2173 15.9097C13.3677 15.9872 13.5136 16.0236 13.6595 16.0236C14.0241 16.0236 14.2612 15.7911 14.3387 15.7136L16.0436 14.0087C16.308 13.7443 16.5952 13.603 16.8779 13.603C17.2243 13.603 17.5069 13.8172 17.6847 14.0087L20.4336 16.753C20.9806 17.3 20.9761 17.8927 20.4199 18.4716C20.2285 18.6768 20.0279 18.8728 19.8136 19.0779C19.4945 19.3879 19.1617 19.707 18.8609 20.0671C18.3366 20.6324 17.7121 20.8968 16.9052 20.8968C16.8277 20.8968 16.7457 20.8922 16.6682 20.8877C15.1729 20.792 13.7825 20.2085 12.7386 19.7116C9.90314 18.3394 7.41412 16.3929 5.34906 13.9221C3.64868 11.8753 2.50446 9.96975 1.74773 7.92748C1.27819 6.67385 1.1004 5.66639 1.17334 4.7501Z" fill="#235EA0"/>
</svg>
