<svg width="12" height="12" viewBox="0 0 12 12" fill="none" xmlns="http://www.w3.org/2000/svg">
<g clip-path="url(#clip0)">
<path d="M5.99999 1.80508C3.47682 1.80508 1.42398 3.85794 1.42398 6.3811C1.42398 8.90442 3.47684 10.9573 5.99999 10.9573C8.52331 10.9573 10.576 8.90439 10.576 6.3811C10.576 3.85794 8.52317 1.80508 5.99999 1.80508ZM5.99999 10.1279C3.93415 10.1279 2.25345 8.44711 2.25345 6.38126C2.25345 4.31542 3.93413 2.63472 5.99999 2.63472C8.06586 2.63472 9.74654 4.31542 9.74654 6.38126C9.74654 8.44722 8.06584 10.1279 5.99999 10.1279Z" fill="#235EA0"/>
<path d="M7.27189 6.24286H6.16592V4.63917C6.16592 4.4101 5.98025 4.22443 5.75117 4.22443C5.5221 4.22443 5.33643 4.4101 5.33643 4.63917V6.65761C5.33643 6.88668 5.5221 7.07236 5.75117 7.07236H7.27191C7.50099 7.07236 7.68666 6.88668 7.68666 6.65761C7.68664 6.42853 7.50096 6.24286 7.27189 6.24286Z" fill="#235EA0"/>
<path d="M3.65074 9.34944C3.48042 9.19611 3.21816 9.21008 3.06499 9.38026L1.82075 10.7627C1.66742 10.9329 1.68139 11.1952 1.85157 11.3484C1.93079 11.4198 2.03005 11.455 2.1289 11.455C2.24241 11.455 2.3555 11.4086 2.43734 11.3175L3.68159 9.93507C3.83489 9.76486 3.82092 9.5026 3.65074 9.34944Z" fill="#235EA0"/>
<path d="M10.1794 10.7629L8.93515 9.3804C8.78224 9.21008 8.51986 9.19625 8.34952 9.34958C8.1792 9.50276 8.16551 9.765 8.3187 9.93521L9.56294 11.3177C9.64464 11.4086 9.75773 11.455 9.87124 11.455C9.96996 11.455 10.0692 11.4199 10.1486 11.3485C10.3189 11.1953 10.3326 10.9331 10.1794 10.7629Z" fill="#235EA0"/>
<path d="M3.5804 1.1495C2.75629 0.342552 1.42788 0.343795 0.619268 1.15255C0.216942 1.55471 -0.00287779 2.08683 2.84527e-05 2.65088C0.00307532 3.20815 0.223996 3.72991 0.622292 4.12005C0.703034 4.19899 0.807682 4.23839 0.91247 4.23839C1.01864 4.23839 1.12481 4.19775 1.2057 4.11701L3.58356 1.73914C3.66182 1.66077 3.70551 1.55443 3.70494 1.44371C3.7044 1.33295 3.65959 1.22706 3.5804 1.1495ZM0.957962 3.19156C0.874877 3.02414 0.830486 2.83889 0.829525 2.64645C0.827721 2.30581 0.961267 1.98341 1.2057 1.73898C1.44956 1.49525 1.77197 1.37345 2.09615 1.37345C2.28569 1.37345 2.47593 1.41505 2.65122 1.49827L0.957962 3.19156Z" fill="#235EA0"/>
<path d="M11.3808 1.15244C10.572 0.343822 9.24358 0.342439 8.4195 1.14939C8.34042 1.22694 8.29549 1.33286 8.29493 1.44357C8.29436 1.55432 8.33819 1.66077 8.41645 1.739L10.7943 4.11687C10.8752 4.19789 10.9814 4.23839 11.0875 4.23839C11.1923 4.23839 11.2971 4.19899 11.3777 4.11977C11.7762 3.72978 11.9971 3.20804 12 2.65074C12.0029 2.08686 11.7829 1.55474 11.3808 1.15244ZM11.0421 3.19158L9.34881 1.49832C9.8241 1.27269 10.4079 1.35276 10.7943 1.73914C11.0388 1.98357 11.1723 2.30581 11.1705 2.64662C11.1695 2.83892 11.1252 3.02431 11.0421 3.19158Z" fill="#235EA0"/>
</g>
<defs>
<clipPath id="clip0">
<rect width="12" height="12" fill="white"/>
</clipPath>
</defs>
</svg>
