<svg width="27" height="27" viewBox="0 0 27 27" fill="none" xmlns="http://www.w3.org/2000/svg">
<g clip-path="url(#clip0)">
<path d="M15.994 2.97694C15.3705 2.06002 14.8203 1.21646 14.3068 0.446248C14.2335 0.336218 14.1235 0.226188 14.0134 0.152834C13.5733 -0.140579 12.9865 0.00612738 12.6931 0.446248C12.2163 1.21646 11.6661 2.02334 11.0059 2.97694C8.10848 7.23143 3.78063 13.6499 3.78063 17.3175C3.78063 19.9949 4.88093 22.4156 6.64141 24.1761C8.40189 25.8999 10.8226 27.0002 13.4999 27.0002C16.1773 27.0002 18.598 25.8999 20.3585 24.1394C22.119 22.3789 23.2193 19.9582 23.2193 17.2808C23.2193 13.6132 18.8914 7.23143 15.994 2.97694ZM19.0381 22.819C17.6077 24.2494 15.6639 25.093 13.4999 25.093C11.336 25.093 9.39216 24.2127 7.96177 22.819C6.53138 21.3886 5.68782 19.4448 5.68782 17.2808C5.68782 14.2 9.83228 8.075 12.583 4.00389C12.9131 3.52709 13.2065 3.05029 13.4999 2.64685C13.7934 3.05029 14.0868 3.52709 14.4169 4.00389C17.1676 8.11167 21.3121 14.2 21.3121 17.2808C21.3121 19.4448 20.4318 21.3886 19.0381 22.819Z" fill="#3D90C2"/>
<path d="M19.1848 16.6205C18.6714 16.5838 18.2313 16.9872 18.1946 17.5007C18.1579 18.3076 17.9012 19.0778 17.4977 19.738C17.0943 20.3982 16.5074 20.985 15.8106 21.3518C15.3705 21.6085 15.1871 22.1953 15.4438 22.6355C15.7372 23.1489 16.3241 23.2956 16.7642 23.0389C17.7545 22.4888 18.5613 21.6819 19.1115 20.7649C19.6983 19.848 20.0284 18.7477 20.0651 17.6108C20.1018 17.0973 19.6983 16.6572 19.1848 16.6205Z" fill="#3D90C2"/>
</g>
<defs>
<clipPath id="clip0">
<rect width="27" height="27" fill="white"/>
</clipPath>
</defs>
</svg>
